<?xml version="1.0" encoding="UTF-8" standalone="no"?>
<!-- Created with Inkscape (http://www.inkscape.org/) -->

<svg
   version="1.1"
   id="svg2"
   width="666.66669"
   height="496.81332"
   viewBox="0 0 666.66669 496.81332"
   sodipodi:docname="4002797.eps"
   xmlns:inkscape="http://www.inkscape.org/namespaces/inkscape"
   xmlns:sodipodi="http://sodipodi.sourceforge.net/DTD/sodipodi-0.dtd"
   xmlns="http://www.w3.org/2000/svg"
   xmlns:svg="http://www.w3.org/2000/svg">
  <defs
     id="defs6" />
  <sodipodi:namedview
     id="namedview4"
     pagecolor="#ffffff"
     bordercolor="#000000"
     borderopacity="0.25"
     inkscape:showpageshadow="2"
     inkscape:pageopacity="0.0"
     inkscape:pagecheckerboard="0"
     inkscape:deskcolor="#d1d1d1" />
  <g
     id="g8"
     inkscape:groupmode="layer"
     inkscape:label="ink_ext_XXXXXX"
     transform="matrix(1.3333333,0,0,-1.3333333,0,496.81333)">
    <g
       id="g10"
       transform="scale(0.1)">
      <path
         d="m 0,449.129 h 5000 v 2.5 H 0 Z"
         style="fill:#eeeeee;fill-opacity:1;fill-rule:nonzero;stroke:none"
         id="path12" />
      <path
         d="m 4167.79,290.672 h 331.22 v -2.5 h -331.22 v 2.5"
         style="fill:#eeeeee;fill-opacity:1;fill-rule:nonzero;stroke:none"
         id="path14" />
      <path
         d="m 3225.27,263.539 h 86.93 v -2.5 h -86.93 v 2.5"
         style="fill:#eeeeee;fill-opacity:1;fill-rule:nonzero;stroke:none"
         id="path16" />
      <path
         d="m 3965.86,381.039 h 191.922 v 2.5 H 3965.86 Z"
         style="fill:#eeeeee;fill-opacity:1;fill-rule:nonzero;stroke:none"
         id="path18" />
      <path
         d="m 524.59,366.73 h 431.933 v -2.5 H 524.59 v 2.5"
         style="fill:#eeeeee;fill-opacity:1;fill-rule:nonzero;stroke:none"
         id="path20" />
      <path
         d="m 1045.56,366.73 h 63.33 v -2.5 h -63.33 v 2.5"
         style="fill:#eeeeee;fill-opacity:1;fill-rule:nonzero;stroke:none"
         id="path22" />
      <path
         d="m 1314.71,324.512 h 936.76 v -2.5 h -936.76 v 2.5"
         style="fill:#eeeeee;fill-opacity:1;fill-rule:nonzero;stroke:none"
         id="path24" />
      <path
         d="m 439.152,3723.59 c -30.101,0 -54.582,-24.48 -54.582,-54.57 V 954.699 c 0,-30.097 24.481,-54.578 54.582,-54.578 H 2370.14 c 30.08,0 54.57,24.481 54.57,54.578 V 3669.02 c 0,30.09 -24.49,54.57 -54.57,54.57 H 439.152 M 2370.14,897.621 H 439.152 c -31.476,0 -57.082,25.598 -57.082,57.078 V 3669.02 c 0,31.46 25.606,57.07 57.082,57.07 H 2370.14 c 31.46,0 57.07,-25.61 57.07,-57.07 V 954.699 c 0,-31.48 -25.61,-57.078 -57.07,-57.078"
         style="fill:#eeeeee;fill-opacity:1;fill-rule:nonzero;stroke:none"
         id="path26" />
      <path
         d="m 2602.12,3723.59 c -30.09,0 -54.57,-24.48 -54.57,-54.57 V 954.699 c 0,-30.097 24.48,-54.578 54.57,-54.578 h 1930.99 c 30.09,0 54.58,24.481 54.58,54.578 V 3669.02 c 0,30.09 -24.49,54.57 -54.58,54.57 H 2602.12 M 4533.11,897.621 H 2602.12 c -31.47,0 -57.07,25.598 -57.07,57.078 V 3669.02 c 0,31.46 25.6,57.07 57.07,57.07 h 1930.99 c 31.47,0 57.08,-25.61 57.08,-57.07 V 954.699 c 0,-31.48 -25.61,-57.078 -57.08,-57.078"
         style="fill:#eeeeee;fill-opacity:1;fill-rule:nonzero;stroke:none"
         id="path28" />
      <path
         d="M 4170,3443.56 H 1950.16 l 665.66,-1035.9 H 4008.9 l 161.1,1035.9"
         style="fill:#e3e3e2;fill-opacity:1;fill-rule:nonzero;stroke:none"
         id="path30" />
      <path
         d="m 3869.38,440.871 h 172.141 v 2960.8 H 3869.38 Z"
         style="fill:#f4f4f4;fill-opacity:1;fill-rule:nonzero;stroke:none"
         id="path32" />
      <path
         d="m 1950.16,3443.56 v 91.93 H 4170 v -91.93 H 1950.16"
         style="fill:#eeeeee;fill-opacity:1;fill-rule:nonzero;stroke:none"
         id="path34" />
      <path
         d="m 3061.02,3182.57 h 34.09 v -451.4 h -34.09 v 451.4"
         style="fill:#f4f4f4;fill-opacity:1;fill-rule:nonzero;stroke:none"
         id="path36" />
      <path
         d="m 2491.02,3182.57 h 34.09 v -451.4 h -34.09 v 451.4"
         style="fill:#f4f4f4;fill-opacity:1;fill-rule:nonzero;stroke:none"
         id="path38" />
      <path
         d="m 3128.84,2548.52 h -671.55 v 249.2 h 671.55 v -249.2"
         style="fill:#f4f4f4;fill-opacity:1;fill-rule:nonzero;stroke:none"
         id="path40" />
      <path
         d="m 1936.93,1616.85 h 431.43 c 167.82,0 303.86,-136.05 303.86,-303.86 V 462.391 H 1633.08 v 850.599 c 0,167.81 136.04,303.86 303.85,303.86"
         style="fill:#e3e3e2;fill-opacity:1;fill-rule:nonzero;stroke:none"
         id="path42" />
      <path
         d="m 1060.1,2638.32 c 27,-29.71 54.1,-59.4 81.3,-89 h -138.8 c -212.502,212.2 -335.803,350.8 -335.803,350.8 l 155.305,5.99 C 900.496,2816.02 980,2726.91 1060.1,2638.32"
         style="fill:#f4f4f4;fill-opacity:1;fill-rule:nonzero;stroke:none"
         id="path44" />
      <path
         d="m 1363.8,2549.32 h -145.7 c -37.7,42.9 -75.3,85.9 -112.7,129.09 -66,76.51 -131.599,153.5 -196.498,231 l 168.298,6.5 c 100,-131.59 195.7,-253.59 286.6,-366.59"
         style="fill:#f4f4f4;fill-opacity:1;fill-rule:nonzero;stroke:none"
         id="path46" />
      <path
         d="m 1555.4,2115.52 19.6,-19.81 h -93.6 c -102.8,92.5 -198.1,181.2 -284.4,263.7 h 121.5 c 44.9,-47.39 90.1,-94.49 135.7,-141.29 33.2,-34.71 67.5,-68.4 101.2,-102.6"
         style="fill:#f4f4f4;fill-opacity:1;fill-rule:nonzero;stroke:none"
         id="path48" />
      <path
         d="m 1744.2,2095.71 h -110.1 l -47.5,50.2 c -32.7,34.91 -66.1,69.21 -98.3,104.51 -33.7,36.09 -67.1,72.5 -100.4,108.99 h 131.2 c 79.5,-95.49 154.6,-183.3 225.1,-263.7"
         style="fill:#f4f4f4;fill-opacity:1;fill-rule:nonzero;stroke:none"
         id="path50" />
      <path
         d="m 1865.9,1814.91 c 5.3,-4.89 10.6,-9.79 16,-14.6 h -59.5 c -68.2,56.91 -134.3,113.3 -198,168.81 h 79.1 c 19.1,-18.6 38.1,-37.11 57.4,-55.51 l 105,-98.7"
         style="fill:#f4f4f4;fill-opacity:1;fill-rule:nonzero;stroke:none"
         id="path52" />
      <path
         d="m 2012.3,1800.31 h -82.6 c -13.6,12.9 -27.2,25.9 -40.8,39.01 l -102.2,100.59 c -9.7,9.71 -19.3,19.41 -28.9,29.21 h 98.9 c 55.5,-61.5 107.4,-117.6 155.6,-168.81"
         style="fill:#f4f4f4;fill-opacity:1;fill-rule:nonzero;stroke:none"
         id="path54" />
      <path
         d="m 1963.5,1726.51 c 52,-46.6 104.5,-92.4 157.9,-137.19 h -37.8 c -58.4,45.7 -115.7,91.49 -171.7,137.19 h 51.6"
         style="fill:#f4f4f4;fill-opacity:1;fill-rule:nonzero;stroke:none"
         id="path56" />
      <path
         d="m 2218,1589.32 h -57.9 c -51.4,44.79 -102,90.59 -152,137.19 h 74.5 c 50.2,-52.1 95.4,-97.69 135.4,-137.19"
         style="fill:#f4f4f4;fill-opacity:1;fill-rule:nonzero;stroke:none"
         id="path58" />
      <path
         d="m 3135.75,2481.56 h 15.55 v -205.9 h -15.55 v 205.9"
         style="fill:#e3e3e2;fill-opacity:1;fill-rule:nonzero;stroke:none"
         id="path60" />
      <path
         d="m 2875.76,2481.56 h 15.55 v -205.9 h -15.55 v 205.9"
         style="fill:#e3e3e2;fill-opacity:1;fill-rule:nonzero;stroke:none"
         id="path62" />
      <path
         d="m 3166.68,2192.34 h -306.31 v 113.67 h 306.31 v -113.67"
         style="fill:#e3e3e2;fill-opacity:1;fill-rule:nonzero;stroke:none"
         id="path64" />
      <path
         d="M 4438.89,113.23 C 4438.89,50.6914 3570.83,0 2500,0 1429.18,0 561.113,50.6914 561.113,113.23 c 0,62.54 868.067,113.239 1938.887,113.239 1070.83,0 1938.89,-50.699 1938.89,-113.239"
         style="fill:#f8f8f9;fill-opacity:1;fill-rule:nonzero;stroke:none"
         id="path66" />
      <path
         d="m 2310.71,1499.68 h -110.8 c 49.09,-37.28 98.86,-74.41 149.37,-111.2 h 84.15 c 0,0 -42.74,35.56 -122.72,111.2"
         style="fill:#f4f4f4;fill-opacity:1;fill-rule:nonzero;stroke:none"
         id="path68" />
      <path
         d="M 4212.4,1031.82 V 438.211 l -289.4,4.508 -92,1.39 v 142.5 c 0,12 3,23.911 8.8,34.5 l 58.2,106.813 c 5.7,10.387 14.5,18.398 25,23.098 6.7,2.992 14,4.601 21.6,4.601 h 192.7 v 194.598 c 0,9.601 2.6,19.101 7.6,27.402 l 37.2,61.599 0.5,0.8 c 2.9,4.89 8.1,7.79 13.8,7.79 8.8,0 16,-7.19 16,-15.99"
         style="fill:#4870c0;fill-opacity:1;fill-rule:nonzero;stroke:none"
         id="path70" />
      <path
         d="m 3923,461.199 h -92 v 15.02 c 4.24,38.902 8.55,83.121 12.61,132.492 26.68,30.348 53.54,62.371 79.39,95.348 v -242.86 m 259.1,294.422 h -10.75 c -9.53,21.277 -22.6,46.578 -34.05,54.879 v 139.719 c 0,9.601 2.6,19.101 7.6,27.402 l 37.2,61.599 0.5,0.8 c 2.9,4.89 8.1,7.79 13.8,7.79 8.8,0 16,-7.19 16,-15.99 v 0 c 0,8.8 -7.2,15.99 -16,15.99 -5.7,0 -10.9,-2.9 -13.8,-7.79 l -0.5,-0.8 V 905.172 c -0.64,0.777 -1.32,1.469 -2.04,2.078 -3.6,3.02 -6.88,4.789 -9.57,4.789 -4.51,0 -7.4,-4.969 -7.39,-17.41 0,-10.731 2.14,-27.008 7.23,-50.449 6.22,-28.641 9.76,-54.981 11.77,-75.739 v -12.82"
         style="fill:#c7d9f2;fill-opacity:1;fill-rule:nonzero;stroke:none"
         id="path72" />
      <path
         d="M 4128.04,461.199 H 3923 v 242.86 c 13.3,16.972 26.33,34.203 38.91,51.562 h 171.51 c 13.6,-17.91 32.54,-42.371 44.35,-62.473 -0.8,-1.058 -1.39,-2.168 -1.81,-3.359 -10.31,14.102 -26.08,31.063 -42.27,31.063 -4.24,0 -8.51,-1.172 -12.72,-3.864 -6.41,-4.09 -9.09,-8.976 -9.09,-14.308 0.02,-21.008 42,-48.731 63.08,-60.231 16.43,-8.961 29.73,-47.308 37.44,-75.008 v -9.98 h -96.5 l 12.14,-96.262 m 56.71,261.723 c 0,0 -5.47,14.949 -13.4,32.699 h 10.75 v 12.82 c 2.59,-26.793 2.65,-44.293 2.65,-45.461 v -0.011 -0.008 c 0,-0.031 0,-0.039 0,-0.039 m 24.71,31.289 c 0,0 -13.64,31.598 -15.88,61.91 -2.14,28.828 0.93,74.02 -11.48,89.051 v 134.048 l 0.5,0.8 c 2.9,4.89 8.1,7.79 13.8,7.79 8.8,0 16,-7.19 16,-15.99 v -131.699 -2.5 -59.812 c -0.21,-0.059 -0.43,-0.129 -0.66,-0.207 -7.42,-2.731 -10.39,-14.114 -10.38,-29.192 0.01,-15.84 3.31,-35.762 8.2,-54.031 -0.03,-0.047 -0.06,-0.109 -0.1,-0.168"
         style="fill:#deeaf8;fill-opacity:1;fill-rule:nonzero;stroke:none"
         id="path74" />
      <path
         d="m 2367.73,1060.64 -19.47,14.55 c -10.35,7.73 -21.09,14.81 -32.14,21.31 -233.55,181.26 -409.41,579.43 -453.76,675.22 -12.36,26.7 -34.37,44.83 -34.37,44.83 l -23.92,-224.89 -30.9,-1160.68 h 112.8 l 3.57,-50.601 c 298.7,38.203 498.26,50.601 498.26,50.601 v 589.57 c 0,15.78 -7.44,30.63 -20.07,40.09"
         style="fill:#4870c0;fill-opacity:1;fill-rule:nonzero;stroke:none"
         id="path76" />
      <path
         d="m 1894.83,381.059 c 8.99,2.339 15.62,10.511 15.62,20.242 v 66.48 0 c 0,11.559 -9.36,20.918 -20.91,20.918 h -23.67 v 1243.441 0 c 0,32.28 -13.79,62.85 -37.6,84.18 2.6,-2.21 22.55,-19.68 34.09,-44.6 26.46,-57.16 99.73,-221.94 204.15,-384.09 -3.67,-196.53 19.16,-497.892 111.1,-949.778 -54.61,-10.11 -117.26,-24.512 -186.56,-44.993 -30.72,-3.621 -62.84,-7.55 -96.22,-11.8 m 386.98,72.543 V 960.84 l -2.78,166.64 c 7.93,-7.09 15.94,-13.95 24.01,-20.56 8.76,-34.17 18.51,-70.13 29.34,-107.959 1.66,-5.891 3.35,-11.832 5.09,-17.813 4.04,-13.898 8.3,-28.058 12.6,-42.476 v 0 0 c -0.01,0.047 -0.01,0.109 -0.02,0.156 11.5,-38.137 24.05,-78.019 37.75,-119.726 V 462.391 461.16 c -23.11,-0.441 -59.05,-2.16 -105.99,-7.558"
         style="fill:#b4caec;fill-opacity:1;fill-rule:nonzero;stroke:none"
         id="path78" />
      <path
         d="m 1302.75,2013.09 h -261.52 c -170.816,0 -337.046,-55.28 -473.839,-157.57 l -43.95,-32.87 c -28.531,-21.34 -45.332,-54.88 -45.332,-90.51 V 400.98 H 1865.87 v 1331.16 c 0,35.63 -16.8,69.17 -45.33,90.51 l -43.95,32.87 c -136.79,102.29 -303.02,157.57 -473.84,157.57"
         style="fill:#4870c0;fill-opacity:1;fill-rule:nonzero;stroke:none"
         id="path80" />
      <path
         d="M 1865.87,488.699 H 478.109 V 1732.14 c 0,35.63 16.801,69.17 45.332,90.51 l 43.95,32.87 c 136.793,102.29 303.023,157.57 473.839,157.57 h 261.52 c 170.82,0 337.05,-55.28 473.84,-157.57 l 43.95,-32.87 c 28.53,-21.34 45.33,-54.88 45.33,-90.51 V 488.699 M 987.379,578.191 V 503.98 h 369.231 v 74.211 h 17.49 c 7.57,0 13.7,6.149 13.7,13.707 v 0 0 c 0,7.563 -6.13,13.704 -13.7,13.704 h -17.49 v 122.589 h 17.49 c 7.57,0 13.7,6.149 13.7,13.707 v 0 0 c 0,7.563 -6.13,13.704 -13.7,13.704 h -17.49 v 122.589 h 17.49 c 7.57,0 13.7,6.149 13.7,13.707 v 0 0 c 0,7.563 -6.13,13.704 -13.7,13.704 h -17.49 V 1591.66 H 987.379 V 905.602 h -26.313 c -7.57,0 -13.703,-6.141 -13.703,-13.704 v 0 0 c 0,-7.558 6.133,-13.707 13.703,-13.707 h 26.313 V 755.602 h -26.313 c -7.57,0 -13.703,-6.141 -13.703,-13.704 v 0 0 c 0,-7.558 6.133,-13.707 13.703,-13.707 h 26.313 V 605.602 h -26.313 c -7.57,0 -13.703,-6.141 -13.703,-13.704 v 0 0 c 0,-7.558 6.133,-13.707 13.703,-13.707 h 26.313 m 744.611,187.411 c -30.27,0 -54.81,-24.532 -54.81,-54.813 0,-30.258 24.54,-54.801 54.81,-54.801 30.27,0 54.81,24.543 54.81,54.801 0,30.281 -24.54,54.813 -54.81,54.813 m -1119.998,0 c -30.269,0 -54.808,-24.532 -54.808,-54.813 0,-30.258 24.539,-54.801 54.808,-54.801 30.27,0 54.805,24.543 54.805,54.801 0,30.281 -24.535,54.813 -54.805,54.813 m 1119.998,140 c -30.27,0 -54.81,-24.532 -54.81,-54.813 0,-30.258 24.54,-54.801 54.81,-54.801 30.27,0 54.81,24.543 54.81,54.801 0,30.281 -24.54,54.813 -54.81,54.813 m -1119.998,0 c -30.269,0 -54.808,-24.532 -54.808,-54.813 0,-30.258 24.539,-54.801 54.808,-54.801 30.27,0 54.805,24.543 54.805,54.801 0,30.281 -24.535,54.813 -54.805,54.813 m 916.758,686.058 c -39.81,0 -72.09,-32.27 -72.09,-72.09 v -254.93 c 0,-39.81 32.28,-72.09 72.09,-72.09 h 156.48 c 39.81,0 72.09,32.28 72.09,72.09 v 254.93 c 0,39.82 -32.28,72.09 -72.09,72.09 h -156.48 m -870,0 c -39.809,0 -72.09,-32.27 -72.09,-72.09 v -254.93 c 0,-39.81 32.281,-72.09 72.09,-72.09 h 156.484 c 39.809,0 72.09,32.28 72.09,72.09 v 254.93 c 0,39.82 -32.281,72.09 -72.09,72.09 H 658.75"
         style="fill:#c7d9f2;fill-opacity:1;fill-rule:nonzero;stroke:none"
         id="path82" />
      <path
         d="M 1889.54,380.379 H 454.445 c -11.55,0 -20.914,9.371 -20.914,20.922 v 66.48 c 0,11.559 9.364,20.918 20.914,20.918 H 1889.54 c 11.55,0 20.91,-9.359 20.91,-20.918 v -66.48 c 0,-11.551 -9.36,-20.922 -20.91,-20.922"
         style="fill:#4870c0;fill-opacity:1;fill-rule:nonzero;stroke:none"
         id="path84" />
      <path
         d="M 1356.61,503.98 H 987.379 v 74.211 H 1356.61 V 503.98 m 0,101.622 H 987.379 V 728.191 H 1356.61 V 605.602 m 0,150 H 987.379 V 878.191 H 1356.61 V 755.602 m 0,150 H 987.379 V 1591.66 H 1356.61 V 905.602 m -234.43,587.978 c -21.11,0 -38.22,-17.11 -38.22,-38.23 v -186.47 c 0,-21.12 17.11,-38.22 38.22,-38.22 h 99.62 c 21.11,0 38.23,17.1 38.23,38.22 v 186.47 c 0,21.12 -17.12,38.23 -38.23,38.23 h -99.62"
         style="fill:#b1c2e8;fill-opacity:1;fill-rule:nonzero;stroke:none"
         id="path86" />
      <path
         d="m 1685.23,1192.55 h -156.48 c -39.81,0 -72.09,32.28 -72.09,72.09 v 254.93 c 0,39.82 32.28,72.09 72.09,72.09 h 156.48 c 39.81,0 72.09,-32.27 72.09,-72.09 v -254.93 c 0,-39.81 -32.28,-72.09 -72.09,-72.09"
         style="fill:#b1c2e8;fill-opacity:1;fill-rule:nonzero;stroke:none"
         id="path88" />
      <path
         d="M 815.234,1192.55 H 658.75 c -39.809,0 -72.09,32.28 -72.09,72.09 v 254.93 c 0,39.82 32.281,72.09 72.09,72.09 h 156.484 c 39.809,0 72.09,-32.27 72.09,-72.09 v -254.93 c 0,-39.81 -32.281,-72.09 -72.09,-72.09"
         style="fill:#b1c2e8;fill-opacity:1;fill-rule:nonzero;stroke:none"
         id="path90" />
      <path
         d="m 1221.8,1230.66 h -99.62 c -21.11,0 -38.22,17.1 -38.22,38.22 v 186.47 c 0,21.12 17.11,38.23 38.22,38.23 h 99.62 c 21.11,0 38.23,-17.11 38.23,-38.23 v -186.47 c 0,-21.12 -17.12,-38.22 -38.23,-38.22"
         style="fill:#9eaed5;fill-opacity:1;fill-rule:nonzero;stroke:none"
         id="path92" />
      <path
         d="m 1731.99,795.988 c -30.27,0 -54.81,24.543 -54.81,54.801 0,30.281 24.54,54.813 54.81,54.813 30.27,0 54.81,-24.532 54.81,-54.813 0,-30.258 -24.54,-54.801 -54.81,-54.801 m 0,82.203 c -15.14,0 -27.4,-12.261 -27.4,-27.402 0,-15.141 12.26,-27.398 27.4,-27.398 15.14,0 27.4,12.257 27.4,27.398 0,15.141 -12.26,27.402 -27.4,27.402"
         style="fill:#9cacd3;fill-opacity:1;fill-rule:nonzero;stroke:none"
         id="path94" />
      <path
         d="m 1731.99,823.391 c -15.14,0 -27.4,12.257 -27.4,27.398 0,15.141 12.26,27.402 27.4,27.402 15.14,0 27.4,-12.261 27.4,-27.402 0,-15.141 -12.26,-27.398 -27.4,-27.398"
         style="fill:#e4e9f4;fill-opacity:1;fill-rule:nonzero;stroke:none"
         id="path96" />
      <path
         d="m 1731.99,655.988 c -30.27,0 -54.81,24.543 -54.81,54.801 0,30.281 24.54,54.813 54.81,54.813 30.27,0 54.81,-24.532 54.81,-54.813 0,-30.258 -24.54,-54.801 -54.81,-54.801"
         style="fill:#9cacd3;fill-opacity:1;fill-rule:nonzero;stroke:none"
         id="path98" />
      <path
         d="m 611.992,795.988 c -30.269,0 -54.808,24.543 -54.808,54.801 0,30.281 24.539,54.813 54.808,54.813 30.27,0 54.805,-24.532 54.805,-54.813 0,-30.258 -24.535,-54.801 -54.805,-54.801 m 0,82.203 c -15.137,0 -27.402,-12.261 -27.402,-27.402 0,-15.141 12.265,-27.398 27.402,-27.398 15.137,0 27.403,12.257 27.403,27.398 0,15.141 -12.266,27.402 -27.403,27.402"
         style="fill:#9cacd3;fill-opacity:1;fill-rule:nonzero;stroke:none"
         id="path100" />
      <path
         d="m 611.992,823.391 c -15.137,0 -27.402,12.257 -27.402,27.398 0,15.141 12.265,27.402 27.402,27.402 15.137,0 27.403,-12.261 27.403,-27.402 0,-15.141 -12.266,-27.398 -27.403,-27.398"
         style="fill:#e4e9f4;fill-opacity:1;fill-rule:nonzero;stroke:none"
         id="path102" />
      <path
         d="m 611.992,655.988 c -30.269,0 -54.808,24.543 -54.808,54.801 0,30.281 24.539,54.813 54.808,54.813 30.27,0 54.805,-24.532 54.805,-54.813 0,-30.258 -24.535,-54.801 -54.805,-54.801"
         style="fill:#9cacd3;fill-opacity:1;fill-rule:nonzero;stroke:none"
         id="path104" />
      <path
         d="M 1374.1,878.191 H 961.066 c -7.57,0 -13.703,6.149 -13.703,13.707 0,7.563 6.133,13.704 13.703,13.704 H 1374.1 c 7.57,0 13.7,-6.141 13.7,-13.704 0,-7.558 -6.13,-13.707 -13.7,-13.707"
         style="fill:#4870c0;fill-opacity:1;fill-rule:nonzero;stroke:none"
         id="path106" />
      <path
         d="M 1374.1,728.191 H 961.066 c -7.57,0 -13.703,6.149 -13.703,13.707 0,7.563 6.133,13.704 13.703,13.704 H 1374.1 c 7.57,0 13.7,-6.141 13.7,-13.704 0,-7.558 -6.13,-13.707 -13.7,-13.707"
         style="fill:#4870c0;fill-opacity:1;fill-rule:nonzero;stroke:none"
         id="path108" />
      <path
         d="M 1374.1,578.191 H 961.066 c -7.57,0 -13.703,6.149 -13.703,13.707 0,7.563 6.133,13.704 13.703,13.704 H 1374.1 c 7.57,0 13.7,-6.141 13.7,-13.704 0,-7.558 -6.13,-13.707 -13.7,-13.707"
         style="fill:#4870c0;fill-opacity:1;fill-rule:nonzero;stroke:none"
         id="path110" />
      <path
         d="M 1374.1,878.191 H 961.066 c -7.57,0 -13.703,6.149 -13.703,13.707 0,7.563 6.133,13.704 13.703,13.704 H 1374.1 c 7.57,0 13.7,-6.141 13.7,-13.704 0,-7.558 -6.13,-13.707 -13.7,-13.707"
         style="fill:#a1bce6;fill-opacity:1;fill-rule:nonzero;stroke:none"
         id="path112" />
      <path
         d="M 1374.1,728.191 H 961.066 c -7.57,0 -13.703,6.149 -13.703,13.707 0,7.563 6.133,13.704 13.703,13.704 H 1374.1 c 7.57,0 13.7,-6.141 13.7,-13.704 0,-7.558 -6.13,-13.707 -13.7,-13.707"
         style="fill:#a1bce6;fill-opacity:1;fill-rule:nonzero;stroke:none"
         id="path114" />
      <path
         d="M 1374.1,578.191 H 961.066 c -7.57,0 -13.703,6.149 -13.703,13.707 0,7.563 6.133,13.704 13.703,13.704 H 1374.1 c 7.57,0 13.7,-6.141 13.7,-13.704 0,-7.558 -6.13,-13.707 -13.7,-13.707"
         style="fill:#a1bce6;fill-opacity:1;fill-rule:nonzero;stroke:none"
         id="path116" />
      <path
         d="M 1889.54,380.379 H 454.445 c -11.55,0 -20.914,9.371 -20.914,20.922 v 66.48 c 0,11.559 9.364,20.918 20.914,20.918 H 1889.54 c 11.55,0 20.91,-9.359 20.91,-20.918 v -66.48 c 0,-11.551 -9.36,-20.922 -20.91,-20.922"
         style="fill:#a1bce6;fill-opacity:1;fill-rule:nonzero;stroke:none"
         id="path118" />
      <path
         d="m 2399.99,461.199 h 1959.68 l 154.28,-95.957 H 1980.48 c 0,0 265.22,95.957 419.51,95.957"
         style="fill:#4870c0;fill-opacity:1;fill-rule:nonzero;stroke:none"
         id="path120" />
      <path
         d="m 4513.95,365.242 h -696.57 c 3.67,26.578 7.76,58.637 11.96,95.957 h 298.7 l 5.46,-43.34 h 182.3 l 5.46,43.34 h 38.41 l 154.28,-95.957 m -858.16,0 h -23.8 l -12.5,15.219 c 7.36,6.687 19.98,18.281 36.51,33.949 0,-0.762 0,-1.441 0,-2.199 -0.01,-15.461 -0.07,-31.121 -0.21,-46.969 m -91.92,0 h -18.18 l 10.62,9.539 7.56,-9.539 m -139.5,0 h -279.38 l -8.46,95.957 h 351.21 l 16.15,-20.347 -16.32,-14.633 0.05,-0.047 -65.27,-58.594 2.02,-2.336 m -694.37,0 h -99 l -0.67,2.988 -4.87,21.899 16.63,5.301 1.55,48.691 -12.81,-4.25 -3.77,21.328 h 94.47 l 8.47,-95.957 m -163.99,0 h -297.98 l -0.14,3.098 17.3,2.34 9.99,47.672 -13.37,-1.961 v 23.429 c 43.99,8.512 89.34,15.641 135.99,21.16 v 0 0 c 0,0 -2.5,0.129 -7.36,0.219 h 106.86 c 6.72,-17.148 13.59,-34.527 20.62,-52.129 l -8.74,-2.898 18.25,-40.922 16.97,5.41 1.61,-5.418 m -381.25,0 h -176.94 c 55.02,19.438 113.03,37.168 173.92,52.399 1.07,-5.161 2.12,-10.231 3.2,-15.43 l -9.08,-1.332 8.9,-35.637"
         style="fill:#dbe8f7;fill-opacity:1;fill-rule:nonzero;stroke:none"
         id="path122" />
      <path
         d="m 2007.02,364.961 c 122.46,43.32 259.71,78.168 410.78,96.019 0,0 -204.01,10.84 -513.86,-96.019 h 103.08"
         style="fill:#4870c0;fill-opacity:1;fill-rule:nonzero;stroke:none"
         id="path124" />
      <path
         d="m 2007.02,364.961 h -103.08 c 104.53,36.051 197,58.699 273.67,72.891 1.35,-6.661 2.75,-13.473 4.13,-20.211 -60.89,-15.231 -118.9,-32.961 -173.92,-52.399 v 0 c -0.27,-0.094 -0.53,-0.183 -0.8,-0.281 m 274.79,74.859 v 13.782 c 56.99,6.558 97.76,7.687 119.05,7.687 11.14,0 16.94,-0.309 16.94,-0.309 -46.65,-5.519 -92,-12.648 -135.99,-21.16"
         style="fill:#a1bce6;fill-opacity:1;fill-rule:nonzero;stroke:none"
         id="path126" />
      <path
         d="m 4233.31,541.191 c 0,0 -27.04,52.911 3.85,105.079 30.9,52.171 39.85,64.449 20.16,75.14 -19.69,10.68 -28.73,-41.73 -28.73,-41.73 0,0 -16.6,36.058 -2.89,73.8 13.7,37.731 22.3,99.211 3.58,105.801 -18.72,6.59 -3.57,-76.679 -19.82,-105.07 0,0 -13.64,31.598 -15.88,61.91 -2.25,30.32 1.26,78.719 -13.52,91.129 -14.79,12.422 -24.25,3.82 -9.73,-63.07 14.53,-66.879 14.42,-121.258 14.42,-121.258 0,0 -32.08,87.738 -53.62,90.297 -21.53,2.562 -21.51,-25.86 -3.07,-50.5 18.43,-24.649 53.98,-68.797 59.81,-91.528 0,0 -35.22,66.039 -66.9,45.797 -31.68,-20.238 27.58,-60.117 53.99,-74.539 26.41,-14.398 44.75,-104.75 44.75,-104.75 l 13.6,3.492"
         style="fill:#4870c0;fill-opacity:1;fill-rule:nonzero;stroke:none"
         id="path128" />
      <path
         d="m 4221.73,557.461 h -6.66 c -0.8,3.098 -1.69,6.449 -2.67,9.98 -7.71,27.7 -21.01,66.047 -37.44,75.008 -21.08,11.5 -63.06,39.223 -63.08,60.231 0,5.332 2.68,10.218 9.09,14.308 4.21,2.692 8.48,3.864 12.72,3.864 16.19,0 31.96,-16.961 42.27,-31.063 -0.45,-1.32 -0.67,-2.738 -0.67,-4.277 0.03,-10.742 11.06,-27.653 31.41,-61 11.85,-19.403 15.55,-39.024 15.55,-55.973 0,-3.84 -0.19,-7.551 -0.52,-11.078"
         style="fill:#b4caec;fill-opacity:1;fill-rule:nonzero;stroke:none"
         id="path130" />
      <path
         d="m 4214.83,658.031 c 0,0 -7.97,42.848 -23.99,42.848 -1.67,0 -3.44,-0.481 -5.29,-1.508 -3.5,-1.961 -6.09,-3.961 -7.78,-6.223 -13.46,22.911 -36.19,51.493 -49.71,69.571 -8.86,11.84 -13.47,24.562 -13.48,34.301 0,9.652 4.53,16.359 13.93,16.359 0.84,0 1.71,-0.047 2.62,-0.16 21.54,-2.559 53.62,-90.297 53.62,-90.297 0,0 0,0.008 0,0.039 v 0.008 0.011 c 0,2.071 -0.18,55.622 -14.42,121.2 -5.09,23.441 -7.23,39.718 -7.23,50.449 -0.01,12.441 2.88,17.41 7.39,17.41 2.69,0 5.97,-1.769 9.57,-4.789 14.78,-12.41 11.27,-60.809 13.52,-91.129 2.24,-30.312 15.88,-61.91 15.88,-61.91 0.04,0.059 0.07,0.121 0.1,0.168 2.14,-7.981 4.58,-15.649 7.18,-22.52 1.5,-3.98 2.67,-7.949 3.55,-11.847 0.12,-7.68 1.08,-14.703 2.3,-20.66 0,-0.231 0,-0.454 0,-0.672 -0.01,-23.211 -7.76,-40.649 -7.76,-40.649 m 43.26,43.821 c 0,0 -0.01,0.617 -0.01,1.828 0,2.789 0.05,8.711 0.39,17.082 2.13,-1.231 3.88,-2.5 5.27,-3.864 -3.52,-8.988 -5.65,-15.046 -5.65,-15.046"
         style="fill:#b4caec;fill-opacity:1;fill-rule:nonzero;stroke:none"
         id="path132" />
      <path
         d="m 4226.2,754.891 c -4.36,27.73 -1.62,65.828 -7.29,78.679 0.75,15.129 2.53,26.078 8.39,26.078 0.61,0 1.28,-0.117 1.98,-0.367 7.7,-2.711 10.78,-14.699 10.78,-30.5 0.01,-22.152 -6.03,-51.812 -13.86,-73.89"
         style="fill:#b4caec;fill-opacity:1;fill-rule:nonzero;stroke:none"
         id="path134" />
      <path
         d="m 4211.97,519.488 c 0,0 26.33,53.274 -5.27,105.024 -31.58,51.738 -40.7,63.91 -21.15,74.859 19.55,10.949 29.28,-41.34 29.28,-41.34 0,0 16.12,36.278 1.91,73.828 -14.21,37.551 -23.63,98.891 -5,105.743 18.63,6.839 4.6,-76.622 21.22,-104.793 0,0 13.22,31.781 15.06,62.121 1.84,30.332 -2.32,78.679 12.3,91.3 14.61,12.61 24.2,4.149 10.56,-62.929 -13.62,-67.082 -12.79,-121.449 -12.79,-121.449 0,0 30.91,88.168 52.41,91.007 21.49,2.852 21.85,-25.558 3.75,-50.461 -18.11,-24.886 -53.06,-69.507 -58.59,-92.308 0,0 34.33,66.5 66.28,46.691 31.95,-19.82 -26.76,-60.492 -52.98,-75.261 -26.21,-14.758 -43.35,-105.34 -43.35,-105.34 l -13.64,3.308"
         style="fill:#4870c0;fill-opacity:1;fill-rule:nonzero;stroke:none"
         id="path136" />
      <path
         d="m 4235.7,557.461 h -13.97 c 0.33,3.527 0.52,7.238 0.52,11.078 0,16.949 -3.7,36.57 -15.55,55.973 -20.35,33.347 -31.38,50.258 -31.41,61 -0.02,5.918 3.31,9.957 10.26,13.859 1.85,1.027 3.62,1.508 5.29,1.508 16.02,0 23.99,-42.848 23.99,-42.848 0,0 7.75,17.438 7.76,40.649 0.01,6.718 -0.64,13.922 -2.3,21.332 -0.88,3.898 -2.05,7.867 -3.55,11.847 -2.6,6.871 -5.04,14.539 -7.18,22.52 -4.89,18.269 -8.19,38.191 -8.2,54.031 -0.01,15.078 2.96,26.461 10.38,29.192 0.73,0.269 1.41,0.398 2.04,0.398 15.54,0 3.21,-78.121 19.18,-105.191 0,0 13.22,31.781 15.06,62.121 1.84,30.332 -2.32,78.679 12.3,91.3 3.58,3.102 6.87,4.918 9.58,4.918 4.59,0 7.55,-5.226 7.55,-18.378 0.01,-10.731 -1.95,-26.731 -6.57,-49.469 -12.16,-59.871 -12.8,-109.629 -12.8,-119.621 0,-1.211 0.01,-1.828 0.01,-1.828 0,0 30.91,88.168 52.41,91.007 1,0.141 1.96,0.2 2.88,0.2 9.34,0 13.87,-6.778 13.88,-16.539 0.01,-9.688 -4.42,-22.301 -13.01,-34.122 -18.11,-24.886 -53.06,-69.507 -58.59,-92.308 v 0 0 c 0,0 26.01,50.371 53.82,50.371 4.14,0 8.32,-1.109 12.46,-3.68 6.55,-4.07 9.29,-9.011 9.28,-14.422 -0.04,-20.988 -41.42,-49.097 -62.26,-60.839 -14.16,-7.969 -25.67,-38.071 -33.26,-64.059"
         style="fill:#c7d9f2;fill-opacity:1;fill-rule:nonzero;stroke:none"
         id="path138" />
      <path
         d="m 4333.4,557.461 h -217.5 l 17.6,-139.602 h 182.3 l 17.6,139.602"
         style="fill:#4870c0;fill-opacity:1;fill-rule:nonzero;stroke:none"
         id="path140" />
      <path
         d="m 4315.8,417.859 h -182.3 l -17.6,139.602 h 217.5 l -17.6,-139.602"
         style="fill:#b4caec;fill-opacity:1;fill-rule:nonzero;stroke:none"
         id="path142" />
      <path
         d="m 2826.31,956.871 -1.31,14.938 -88,-7.758 -42.5,481.829 73.05,6.44 43.82,-496.769 14.94,1.32 -1.31,14.938 1.31,-14.938 14.94,1.309 -46.45,526.67 -132.82,-11.72 47.77,-541.61 132.82,11.718 -1.32,14.942 -14.94,-1.309"
         style="fill:#1d2a30;fill-opacity:1;fill-rule:nonzero;stroke:none"
         id="path144" />
      <path
         d="m 2867.45,248.621 c 2.84,0.258 13.52,1.199 16.36,1.449 18.39,1.621 34.56,-11.379 36.19,-29.769 1.62,-18.391 -12.03,-34.02 -30.42,-35.641 -2.84,-0.238 -13.53,-1.191 -16.36,-1.449 -18.4,-1.621 -34.57,11.379 -36.19,29.769 -1.62,18.399 12.02,34.02 30.42,35.641"
         style="fill:#1d2a30;fill-opacity:1;fill-rule:nonzero;stroke:none"
         id="path146" />
      <path
         d="m 2873.03,183.199 c 0.06,0 0.13,0.012 0.19,0.012 0.01,0 0.02,0.008 0.03,0.008 -0.01,0 -0.02,-0.008 -0.03,-0.008 -0.06,0 -0.13,-0.012 -0.19,-0.012"
         style="fill:#f9f9f9;fill-opacity:1;fill-rule:nonzero;stroke:none"
         id="path148" />
      <path
         d="m 2838.1,224.75 c -0.12,0 -0.11,0 -0.24,0 0.98,3.832 2.61,7.41 4.8,10.609 l 0.73,0.063 c -2.38,-3.172 -4.19,-6.774 -5.29,-10.672"
         style="fill:#ffffff;fill-opacity:1;fill-rule:nonzero;stroke:none"
         id="path150" />
      <path
         d="m 2837,213.27 c -0.01,0.101 -0.02,0.21 -0.03,0.312 -0.34,3.859 -0.01,7.617 0.89,11.168 0.13,0 0.12,0 0.24,0 -1.01,-3.621 -1.42,-7.48 -1.1,-11.48"
         style="fill:#f9f9f9;fill-opacity:1;fill-rule:nonzero;stroke:none"
         id="path152" />
      <path
         d="m 2870.24,183.082 c -17.03,0 -31.55,12.949 -33.24,30.188 -0.32,4 0.09,7.859 1.1,11.48 1.1,3.898 2.91,7.5 5.29,10.672 l 43.66,3.859 c 2.23,0.199 4.37,0.66 6.39,1.348 5.63,-5.399 9.41,-12.789 10.14,-21.168 1.62,-18.379 -11.95,-34.602 -30.33,-36.242 -0.01,0 -0.02,-0.008 -0.03,-0.008 -0.06,0 -0.13,-0.012 -0.19,-0.012 -0.94,-0.078 -1.86,-0.117 -2.79,-0.117"
         style="fill:#304047;fill-opacity:1;fill-rule:nonzero;stroke:none"
         id="path154" />
      <path
         d="m 2777.51,240.691 c 2.84,0.25 13.53,1.2 16.36,1.438 18.4,1.633 34.57,-11.367 36.19,-29.77 1.62,-18.379 -12.02,-34.007 -30.42,-35.629 -2.84,-0.25 -13.52,-1.191 -16.36,-1.449 -18.39,-1.621 -34.56,11.367 -36.19,29.77 -1.62,18.39 12.03,34.008 30.42,35.64"
         style="fill:#1d2a30;fill-opacity:1;fill-rule:nonzero;stroke:none"
         id="path156" />
      <path
         d="m 2752.08,225.52 c -0.19,0 -0.38,0 -0.57,0 1.18,2.011 2.57,3.89 4.14,5.609 0.23,-0.098 0.46,-0.199 0.69,-0.297 -1.6,-1.621 -3.03,-3.402 -4.26,-5.312"
         style="fill:#ffffff;fill-opacity:1;fill-rule:nonzero;stroke:none"
         id="path158" />
      <path
         d="m 2747.04,205.609 c 0,0.02 0,0.032 0,0.051 -0.64,7.199 1.06,14.07 4.47,19.86 0.19,0 0.38,0 0.57,0 -3.65,-5.7 -5.56,-12.571 -5.04,-19.911"
         style="fill:#fafafa;fill-opacity:1;fill-rule:nonzero;stroke:none"
         id="path160" />
      <path
         d="m 2780.31,175.148 c -17.13,0 -31.71,13.082 -33.27,30.461 -0.52,7.34 1.39,14.211 5.04,19.911 1.23,1.91 2.66,3.691 4.26,5.312 3.2,-1.344 6.69,-2.07 10.33,-2.07 0.79,0 1.59,0.039 2.4,0.109 l 35.17,3.098 c 5.22,-5.328 8.7,-12.43 9.41,-20.449 1.62,-18.379 -11.98,-34.61 -30.37,-36.239 v 0 c -0.06,0 -0.12,-0.011 -0.19,-0.011 -0.93,-0.079 -1.86,-0.122 -2.78,-0.122"
         style="fill:#45555c;fill-opacity:1;fill-rule:nonzero;stroke:none"
         id="path162" />
      <path
         d="m 2769.07,228.871 117.98,10.41 c 14.82,1.309 25.77,14.379 24.46,29.199 l -67.5,765.18 c -1.3,14.83 -14.38,25.77 -29.2,24.47 l -117.98,-10.4 c -14.82,-1.31 -25.77,-14.39 -24.46,-29.2 l 67.5,-765.19 c 1.3,-14.82 14.38,-25.781 29.2,-24.469"
         style="fill:#1d2a30;fill-opacity:1;fill-rule:nonzero;stroke:none"
         id="path164" />
      <path
         d="m 2832.26,234.441 10.4,0.918 v 0 l -10.04,-0.89 c -0.12,-0.008 -0.24,-0.02 -0.36,-0.028"
         style="fill:#ffffff;fill-opacity:1;fill-rule:nonzero;stroke:none"
         id="path166" />
      <path
         d="m 2842.66,235.359 v 0 l 0.73,0.071 v -0.008 l -0.73,-0.063"
         style="fill:#ffffff;fill-opacity:1;fill-rule:nonzero;stroke:none"
         id="path168" />
      <path
         d="m 2843.39,235.422 v 0.008 l 43.66,3.851 c 2.23,0.199 4.37,0.66 6.39,1.348 v 0 c -2.02,-0.688 -4.16,-1.149 -6.39,-1.348 l -43.66,-3.859"
         style="fill:#57676e;fill-opacity:1;fill-rule:nonzero;stroke:none"
         id="path170" />
      <path
         d="m 2760.04,1053.3 c 0.12,0.01 0.23,0.02 0.35,0.03 l 42.03,3.7 v 0 l -42.38,-3.73"
         style="fill:#ffffff;fill-opacity:1;fill-rule:nonzero;stroke:none"
         id="path172" />
      <path
         d="m 2802.42,1057.03 v 0 l 12.39,1.1 -12.39,-1.1"
         style="fill:#45555c;fill-opacity:1;fill-rule:nonzero;stroke:none"
         id="path174" />
      <path
         d="m 2830.24,234.371 c -13.81,0 -25.58,10.551 -26.82,24.578 l -67.5,765.181 c -1.29,14.7 9.48,27.69 24.12,29.17 l 42.38,3.73 12.39,1.1 c 0.81,0.07 1.61,0.1 2.4,0.1 9.54,0 18.11,-5.03 22.89,-12.77 l -59.32,-5.23 c -17.05,-1.51 -29.92,-15.83 -29.92,-32.71 0,-0.97 0.04,-1.96 0.13,-2.95 l 64.18,-727.582 c 1.51,-17.047 15.86,-30.019 32.67,-30.019 0.96,0 1.93,0.043 2.9,0.133 l 56.96,5.027 c -3.22,-5.297 -8.22,-9.43 -14.26,-11.5 -2.02,-0.688 -4.16,-1.149 -6.39,-1.348 l -43.66,-3.851 -0.73,-0.071 -10.4,-0.918 c -0.68,-0.05 -1.35,-0.07 -2.02,-0.07"
         style="fill:#45555c;fill-opacity:1;fill-rule:nonzero;stroke:none"
         id="path176" />
      <path
         d="m 2681.85,1444.38 100.17,8.82 c 11,0.98 19.14,10.69 18.17,21.68 l -0.28,3.09 c -0.97,11 -10.67,19.13 -21.68,18.16 l -100.16,-8.83 c -11.01,-0.97 -19.14,-10.68 -18.17,-21.68 l 0.27,-3.08 c 0.97,-11.01 10.68,-19.14 21.68,-18.16"
         style="fill:#1d2a30;fill-opacity:1;fill-rule:nonzero;stroke:none"
         id="path178" />
      <path
         d="m 2681.85,1444.38 2,0.17 c 10.5,0.92 18.39,9.81 18.24,20.19 2.08,-6.52 4.21,-12.69 6.24,-18.03 l -26.48,-2.33 m 91.24,8.04 c -1.25,12.57 -6.1,27.91 -11.7,42.23 l 16.84,1.48 c 0.6,0.06 1.19,0.08 1.78,0.08 10.25,0 18.98,-7.84 19.9,-18.24 l 0.28,-3.09 c 0.05,-0.6 0.07,-1.19 0.07,-1.79 0,-10.24 -7.84,-18.96 -18.24,-19.89 l -8.93,-0.78 m -113.27,14.99 v 0 c 0.01,10.25 7.85,18.97 18.25,19.89 l 16.98,1.5 c 0.78,-2.91 1.59,-5.86 2.43,-8.81 -3.69,4.64 -9.39,7.56 -15.64,7.56 -0.59,0 -1.18,-0.03 -1.78,-0.08 l -1.99,-0.17 c -10.4,-0.92 -18.24,-9.64 -18.25,-19.89"
         style="fill:#45555c;fill-opacity:1;fill-rule:nonzero;stroke:none"
         id="path180" />
      <path
         d="m 2680.06,1444.3 c -10.24,0 -18.97,7.84 -19.89,18.24 l -0.27,3.08 c -0.05,0.6 -0.08,1.2 -0.08,1.79 0.01,10.25 7.85,18.97 18.25,19.89 l 1.99,0.17 c 0.6,0.05 1.19,0.08 1.78,0.08 6.25,0 11.95,-2.92 15.64,-7.56 1.47,-5.15 3.03,-10.3 4.61,-15.25 0.15,-10.38 -7.74,-19.27 -18.24,-20.19 l -2,-0.17 c -0.6,-0.06 -1.2,-0.08 -1.79,-0.08"
         style="fill:#364248;fill-opacity:1;fill-rule:nonzero;stroke:none"
         id="path182" />
      <path
         d="m 3087.21,1020.27 61.74,-699.879 c 2.27,-25.7 -16.81,-48.461 -42.5,-50.731 l -255.71,-22.558 c -18.04,-1.59 -33.98,11.867 -35.57,29.886 l -64.18,727.582 c -1.6,18.13 11.75,34.06 29.79,35.66 l 255.7,22.54 c 25.7,2.28 48.47,-16.8 50.73,-42.5"
         style="fill:#4870c0;fill-opacity:1;fill-rule:nonzero;stroke:none"
         id="path184" />
      <path
         d="m 2907.7,252.129 h 0.01 l 19.76,1.742 c -0.11,-0.012 -0.22,-0.019 -0.33,-0.031 l -19.44,-1.711"
         style="fill:#cecdcc;fill-opacity:1;fill-rule:nonzero;stroke:none"
         id="path186" />
      <path
         d="m 2847.84,246.969 c -16.81,0 -31.16,12.972 -32.67,30.019 l -64.18,727.582 c -0.09,0.99 -0.13,1.98 -0.13,2.95 0,-0.97 0.04,-1.96 0.13,-2.95 l 64.18,-727.582 c 1.51,-17.047 15.86,-30.019 32.67,-30.019 0.96,0 1.93,0.043 2.9,0.133 l 56.97,5.027 h -0.01 l -56.96,-5.027 c -0.97,-0.09 -1.94,-0.133 -2.9,-0.133"
         style="fill:#364248;fill-opacity:1;fill-rule:nonzero;stroke:none"
         id="path188" />
      <path
         d="m 2840.1,1045.46 v 0 l 17.08,1.5 c 0.09,0.01 0.18,0.02 0.27,0.03 l -17.35,-1.53"
         style="fill:#cecdcc;fill-opacity:1;fill-rule:nonzero;stroke:none"
         id="path190" />
      <path
         d="m 2780.78,1040.23 59.32,5.23 v 0 l -59.32,-5.23"
         style="fill:#364248;fill-opacity:1;fill-rule:nonzero;stroke:none"
         id="path192" />
      <path
         d="m 2847.84,246.969 c -16.81,0 -31.16,12.972 -32.67,30.019 l -64.18,727.582 c -0.09,0.99 -0.13,1.98 -0.13,2.95 0,16.88 12.87,31.2 29.92,32.71 v 0 l 59.32,5.23 17.35,1.53 c 1.3,0.1 2.59,0.16 3.87,0.16 23.96,0 44.44,-18.38 46.59,-42.7 l 61.74,-699.88 c 2.25,-25.59 -16.64,-48.269 -42.18,-50.699 l -19.76,-1.742 -56.97,-5.027 c -0.97,-0.09 -1.94,-0.133 -2.9,-0.133"
         style="fill:#395eb4;fill-opacity:1;fill-rule:nonzero;stroke:none"
         id="path194" />
      <path
         d="m 3006.65,295.891 c -5.58,0 -10.33,4.257 -10.82,9.918 l -62.61,709.641 c -0.52,5.98 3.9,11.26 9.89,11.79 0.32,0.03 0.64,0.04 0.96,0.04 5.58,0 10.33,-4.26 10.83,-9.93 l 62.6,-709.62 c 0.53,-5.992 -3.9,-11.269 -9.88,-11.8 -0.33,-0.032 -0.65,-0.039 -0.97,-0.039"
         style="fill:#395eb4;fill-opacity:1;fill-rule:nonzero;stroke:none"
         id="path196" />
      <path
         d="m 3044.82,299.25 c -5.58,0 -10.33,4.27 -10.83,9.93 l -62.6,709.63 c -0.53,5.99 3.9,11.27 9.88,11.8 0.33,0.03 0.65,0.04 0.97,0.04 5.57,0 10.33,-4.26 10.83,-9.93 l 62.59,-709.63 c 0.53,-5.981 -3.89,-11.258 -9.87,-11.789 -0.33,-0.031 -0.65,-0.051 -0.97,-0.051"
         style="fill:#395eb4;fill-opacity:1;fill-rule:nonzero;stroke:none"
         id="path198" />
      <path
         d="m 3082.98,302.621 c -5.58,0 -10.32,4.27 -10.82,9.93 l -62.6,709.629 c -0.53,5.98 3.9,11.27 9.88,11.8 0.32,0.02 0.65,0.04 0.97,0.04 5.57,0 10.32,-4.27 10.83,-9.93 l 62.59,-709.629 c 0.53,-5.981 -3.89,-11.27 -9.88,-11.789 -0.32,-0.031 -0.65,-0.051 -0.97,-0.051"
         style="fill:#395eb4;fill-opacity:1;fill-rule:nonzero;stroke:none"
         id="path200" />
      <path
         d="m 3121.15,305.988 c -5.58,0 -10.32,4.274 -10.82,9.922 l -62.61,709.64 c -0.52,5.98 3.9,11.26 9.89,11.79 0.32,0.03 0.64,0.05 0.96,0.05 5.58,0 10.33,-4.27 10.83,-9.93 L 3132,317.82 c 0.53,-5.98 -3.9,-11.261 -9.88,-11.781 -0.33,-0.027 -0.65,-0.051 -0.97,-0.051"
         style="fill:#395eb4;fill-opacity:1;fill-rule:nonzero;stroke:none"
         id="path202" />
      <path
         d="m 2509.15,2114.81 c 59.48,-31.29 97.39,-341.34 126.77,-393.02 29.39,-51.67 104.4,-181.7 104.4,-181.7 0,0 38.99,-71.39 32.32,-101.4 0,0 -47.05,-16.55 -55.39,-9.89 -8.33,6.67 -33.6,91.67 -28.6,101.47 0,0 -103.35,129.29 -121.69,167.07 -18.34,37.79 -108.74,301.17 -108.74,301.17 l 50.93,116.3"
         style="fill:#f9a95e;fill-opacity:1;fill-rule:nonzero;stroke:none"
         id="path204" />
      <path
         d="m 2713.3,1614.01 -77.4,-41.79 c 0,0 -87.2,131.09 -111.7,197.1 -3.7,9.9 -7.9,21.7 -12.5,34.6 -26.3,73.09 -63.5,181.7 -63.5,181.7 l 38.7,65.69 37.3,63.51 c 0,0 32.4,-36.01 57.1,-178.1 24.5,-141.6 132,-322.71 132,-322.71"
         style="fill:#4870c0;fill-opacity:1;fill-rule:nonzero;stroke:none"
         id="path206" />
      <path
         d="m 2635.9,1572.22 c 0,0 -53.38,80.26 -88.35,146.8 -0.84,1.6 -1.68,3.2 -2.5,4.79 -8.64,16.71 -15.98,32.39 -20.85,45.51 -3.7,9.9 -7.9,21.7 -12.5,34.6 35.8,89.39 6.4,205.6 6.4,205.6 l -16.02,21.46 c 1.87,8.32 3.43,15.83 4.72,22.63 3.33,18.4 4.75,31.3 5.14,40.34 l 12.26,20.87 c 0,0 32.4,-36.01 57.1,-178.1 24.5,-141.6 132,-322.71 132,-322.71 l -11.88,-6.41 -51.53,-27.83 -13.99,-7.55"
         style="fill:#395eb4;fill-opacity:1;fill-rule:nonzero;stroke:none"
         id="path208" />
      <path
         d="m 2511.7,1803.92 v 0 c -12.73,35.37 -28.01,79.06 -40.39,114.73 2.58,8.46 5.01,16.54 7.29,24.27 10.84,36.67 18.35,65.36 23.48,88.06 l 16.02,-21.46 c 0,0 29.4,-116.21 -6.4,-205.6"
         style="fill:#244ca5;fill-opacity:1;fill-rule:nonzero;stroke:none"
         id="path210" />
      <path
         d="m 2646.97,293.18 -56.12,-9.91 -23.03,76.539 -21,70.242 64.72,22.609 18.79,-84.43 16.64,-75.05"
         style="fill:#f47272;fill-opacity:1;fill-rule:nonzero;stroke:none"
         id="path212" />
      <path
         d="m 2568.09,358.262 -2.08,6.98 h 0.19 l 1.62,-5.433 0.46,-1.52 -0.19,-0.027"
         style="fill:#cecdcc;fill-opacity:1;fill-rule:nonzero;stroke:none"
         id="path214" />
      <path
         d="m 2566.2,365.242 h -0.19 l -1.61,5.418 0.16,0.051 1.64,-5.469"
         style="fill:#adb7d0;fill-opacity:1;fill-rule:nonzero;stroke:none"
         id="path216" />
      <path
         d="m 2568.28,358.289 -0.46,1.52 -1.62,5.433 -1.64,5.469 60.84,19.398 5.24,-23.617 -62.36,-8.203"
         style="fill:#cd5a58;fill-opacity:1;fill-rule:nonzero;stroke:none"
         id="path218" />
      <path
         d="m 2272.22,269.121 h -57 l -9.36,79.379 -8.47,72.828 67.66,11.012 3.83,-86.41 3.34,-76.809"
         style="fill:#f47272;fill-opacity:1;fill-rule:nonzero;stroke:none"
         id="path220" />
      <path
         d="m 2206.04,346.93 h -0.18 l -1.48,12.851 0.16,0.02 1.32,-11.301 0.18,-1.57"
         style="fill:#cecdcc;fill-opacity:1;fill-rule:nonzero;stroke:none"
         id="path222" />
      <path
         d="m 2268.88,344.16 -62.84,2.77 -0.18,1.57 -1.32,11.301 63.29,8.531 1.05,-24.172"
         style="fill:#cd5a58;fill-opacity:1;fill-rule:nonzero;stroke:none"
         id="path224" />
      <path
         d="m 2635.92,411.039 -92.28,-16.258 c -93.12,232 -159.36,425.66 -206.13,586.367 -25.2,86.722 -44.83,163.832 -59.92,232.262 l 4.22,-252.57 V 387.109 h -93.72 c -227.96,1087.131 -66.4,1335.571 -66.4,1335.571 l 272.7,46.6 c 10.37,-40.71 18.21,-106.69 22.85,-152.62 l 12.3,-90.17 106.6,-550.478 99.78,-564.973"
         style="fill:#1d2a30;fill-opacity:1;fill-rule:nonzero;stroke:none"
         id="path226" />
      <path
         d="m 2529.18,406.172 114.46,37.949 -1.55,-48.691 -94.66,-30.18 -18.25,40.922"
         style="fill:#4870c0;fill-opacity:1;fill-rule:nonzero;stroke:none"
         id="path228" />
      <path
         d="m 2547.43,365.25 -18.25,40.922 114.46,37.949 -1.55,-48.691 -16.69,-5.321 -60.84,-19.398 -0.16,-0.051 -16.97,-5.41"
         style="fill:#b4caec;fill-opacity:1;fill-rule:nonzero;stroke:none"
         id="path230" />
      <path
         d="m 2175.86,400.879 119.32,17.473 -9.99,-47.672 -98.47,-13.289 -10.86,43.488"
         style="fill:#4870c0;fill-opacity:1;fill-rule:nonzero;stroke:none"
         id="path232" />
      <path
         d="m 2186.72,357.391 -10.86,43.488 119.32,17.473 -9.99,-47.672 -17.36,-2.348 -63.29,-8.531 -0.16,-0.02 -17.66,-2.39"
         style="fill:#b4caec;fill-opacity:1;fill-rule:nonzero;stroke:none"
         id="path234" />
      <path
         d="m 2350.07,938.672 c -4.3,14.418 -8.56,28.578 -12.6,42.476 -1.74,5.981 -3.43,11.922 -5.09,17.813 1.68,-5.891 3.39,-11.832 5.13,-17.813 4.03,-13.859 8.21,-27.968 12.54,-42.32 0.01,-0.047 0.01,-0.109 0.02,-0.156"
         style="fill:#8aa1d3;fill-opacity:1;fill-rule:nonzero;stroke:none"
         id="path236" />
      <path
         d="m 2282.47,1191.69 c -0.22,0.84 -0.44,1.67 -0.66,2.5 v 0.18 l -0.03,0.35 c 0.22,-1 0.46,-2.02 0.69,-3.03"
         style="fill:#b3b2b1;fill-opacity:1;fill-rule:nonzero;stroke:none"
         id="path238" />
      <path
         d="m 2350.05,938.828 c -4.33,14.352 -8.51,28.461 -12.54,42.32 -1.74,5.981 -3.45,11.922 -5.13,17.813 -19.9,70.599 -34.58,134.679 -49.91,192.729 -0.23,1.01 -0.47,2.03 -0.69,3.03 l -9.63,116.62 c 0,0 15.72,34.73 27.75,80.78 h 37.15 c 0.9,-20.65 0.16,-42.29 -3.17,-63.93 0,0 -7.41,-177.56 16.17,-389.362"
         style="fill:#182124;fill-opacity:1;fill-rule:nonzero;stroke:none"
         id="path240" />
      <path
         d="m 2283.65,290.352 c -0.15,6.359 -78.34,1.367 -78.34,1.367 0,0 -48.11,-48.93 -94.84,-59.918 -46.72,-11 -20.61,-39.039 31.61,-39.039 52.23,0 92.09,0 129.2,0 37.11,0 13.92,31.617 12.37,97.59"
         style="fill:#1d2a30;fill-opacity:1;fill-rule:nonzero;stroke:none"
         id="path242" />
      <path
         d="m 2171.83,303.59 c -1.07,-0.488 -2.85,-1.508 -2.79,-2.602 0.2,-3.519 11.39,-9.597 22.98,-14 -2.71,5.91 -7.64,14.41 -13.42,16.813 -1.07,0.437 -2.12,0.66 -3.17,0.66 -1.2,0 -2.39,-0.289 -3.6,-0.871 z m -10.22,-19.949 c -1.22,-0.7 -1.95,-1.602 -2.24,-2.743 -0.78,-3.058 0.2,-3.859 0.52,-4.128 3.68,-3.028 18.01,1.289 29.53,6.16 -8.77,1.949 -22.18,3.949 -27.81,0.711 z m -4.34,-10.059 c -1.51,1.25 -3.07,3.707 -1.89,8.34 0.57,2.238 1.97,4.027 4.18,5.297 4.15,2.383 10.91,2.562 17.53,1.91 -6.36,3.391 -11.93,7.519 -12.16,11.621 -0.16,2.68 1.57,4.898 5.13,6.582 3.35,1.578 6.76,1.668 10.12,0.277 10.61,-4.41 17.17,-22.668 17.45,-23.437 l -0.08,-1.582 -0.28,-0.43 v 0 l -0.69,-0.539 c -4.12,-1.961 -21.49,-9.91 -32.41,-9.91 -2.86,0 -5.27,0.551 -6.9,1.871"
         style="fill:#4870c0;fill-opacity:1;fill-rule:nonzero;stroke:none"
         id="path244" />
      <path
         d="m 2663.65,290.352 c -0.15,6.359 -78.34,1.367 -78.34,1.367 0,0 -48.11,-48.93 -94.84,-59.918 -46.72,-11 -20.61,-39.039 31.61,-39.039 52.23,0 92.09,0 129.2,0 37.11,0 13.92,31.617 12.37,97.59"
         style="fill:#1d2a30;fill-opacity:1;fill-rule:nonzero;stroke:none"
         id="path246" />
      <path
         d="m 2551.83,303.59 c -1.07,-0.488 -2.85,-1.508 -2.79,-2.602 0.2,-3.519 11.39,-9.597 22.98,-14 -2.71,5.91 -7.64,14.41 -13.42,16.813 -1.07,0.437 -2.12,0.66 -3.17,0.66 -1.2,0 -2.39,-0.289 -3.6,-0.871 z m -10.22,-19.949 c -1.22,-0.7 -1.95,-1.602 -2.24,-2.743 -0.78,-3.058 0.2,-3.859 0.52,-4.128 3.68,-3.028 18.01,1.289 29.53,6.16 -8.77,1.949 -22.18,3.949 -27.81,0.711 z m -4.34,-10.059 c -1.51,1.25 -3.07,3.707 -1.89,8.34 0.57,2.238 1.97,4.027 4.18,5.297 4.15,2.383 10.91,2.562 17.53,1.91 -6.36,3.391 -11.93,7.519 -12.16,11.621 -0.16,2.68 1.57,4.898 5.13,6.582 3.35,1.578 6.76,1.668 10.12,0.277 10.61,-4.41 17.17,-22.668 17.45,-23.437 l -0.08,-1.582 -0.28,-0.43 v 0 l -0.69,-0.539 c -4.12,-1.961 -21.49,-9.91 -32.41,-9.91 -2.86,0 -5.27,0.551 -6.9,1.871"
         style="fill:#4870c0;fill-opacity:1;fill-rule:nonzero;stroke:none"
         id="path248" />
      <path
         d="m 2173.85,2114.81 c 0,0 -37.47,-77.22 -60.5,-409.19 l 246.08,-17.44 118.59,394.79 -304.17,31.84"
         style="fill:#4870c0;fill-opacity:1;fill-rule:nonzero;stroke:none"
         id="path250" />
      <path
         d="m 2135.52,1704.05 -22.17,1.57 c 9.8,141.31 22.22,236.45 33.25,299.13 9.73,5.18 15.32,8.34 15.32,8.34 0,0 0,0.01 0.01,0.02 -0.01,-16.29 -0.26,-31.41 -0.73,-45.59 -0.3,-11.1 -0.7,-21.6 -1.3,-31.6 -3.3,-56.6 -10.4,-98.91 -20.3,-146.01 l -4.08,-85.86"
         style="fill:#8daee0;fill-opacity:1;fill-rule:nonzero;stroke:none"
         id="path252" />
      <path
         d="m 2383.78,2238.18 -2.19,-1.6 c -10.2,-7.25 -21.92,-14.2 -35.23,-17.24 -37.25,-8.59 -62.7,-3.49 -79.3,13.36 h -0.09 c -23.26,25.28 -29.07,70.07 -25.79,124.09 1.44,24.78 4.98,46.33 11.8,63.1 l 0.17,0.96 0.93,2.3 c 10.2,23.42 27.14,38.6 54.19,45.01 9.35,2.18 19.97,3.41 31.94,3.58 105.34,1.09 124.3,-173.39 43.57,-233.56"
         style="fill:#f9a95e;fill-opacity:1;fill-rule:nonzero;stroke:none"
         id="path254" />
      <path
         d="m 2315.88,2217 c -1.84,0 -3.65,0.05 -5.41,0.15 1.11,5.7 2.07,11.51 2.89,17.36 3.62,0.71 7.27,1.65 10.92,2.84 -0.14,-6.24 -0.68,-13.11 -1.9,-20.15 -2.21,-0.14 -4.38,-0.2 -6.5,-0.2 m -32.55,6.82 c -4.76,2.32 -9.06,5.22 -12.93,8.64 0.31,0.76 0.61,1.54 0.9,2.32 4.19,-0.78 8.65,-1.41 13.32,-1.78 -0.33,-3.18 -0.76,-6.24 -1.29,-9.18"
         style="fill:#ca8849;fill-opacity:1;fill-rule:nonzero;stroke:none"
         id="path256" />
      <path
         d="m 2392.28,2141.43 c 6.49,-30 -32.35,-42.22 -32.35,-42.22 -63.55,27.14 -75.35,60.93 -75.35,60.93 53.01,27.64 37.68,105.85 37.68,105.85 l 10.78,-5.31 75.7,-14.81 c 0,0 -21,-40.3 -23.78,-49.49 l -0.09,-0.26 c -14.24,-48.03 7.41,-54.69 7.41,-54.69"
         style="fill:#f9a95e;fill-opacity:1;fill-rule:nonzero;stroke:none"
         id="path258" />
      <path
         d="m 2252.94,2420.59 c 0,0 -5.81,-73.88 64.2,-105.6 0,0 30.06,-76.74 74.32,-77.83 60.33,-1.47 113.5,84.38 92.6,171.82 -27.1,113.38 -198.88,122.6 -231.12,11.61"
         style="fill:#1d2a30;fill-opacity:1;fill-rule:nonzero;stroke:none"
         id="path260" />
      <path
         d="m 2281.69,2336.2 c 0.02,11.53 9.29,30.88 27.2,28.25 18.54,-2.72 28.82,-48.42 -16.75,-58.63 -6.53,-1.47 -10.5,6.33 -10.45,30.38"
         style="fill:#f9a95e;fill-opacity:1;fill-rule:nonzero;stroke:none"
         id="path262" />
      <path
         d="m 2381.59,2499.11 c 0,0 -70.48,17.81 -109.44,-10.52 -45.49,-33.1 -62.74,-67.32 -8.87,-120.46 0,0 118.33,38.35 157.66,30.23 39.33,-8.12 67.47,-19.59 67.47,-19.59 8.27,78.14 -67.47,136.31 -106.82,120.34"
         style="fill:#1d2a30;fill-opacity:1;fill-rule:nonzero;stroke:none"
         id="path264" />
      <path
         d="m 2264.29,2382.54 c 0,0 37.49,-131.4 12.77,-178.24 -47.24,-89.49 -6.07,-157.59 -6.07,-157.59 l 16.81,-2.41 c 0,0 -45.97,60.85 -6.12,104.17 39.87,43.32 39.05,163.17 32.06,197.8 -6.99,34.64 -49.45,36.27 -49.45,36.27"
         style="fill:#1d2a30;fill-opacity:1;fill-rule:nonzero;stroke:none"
         id="path266" />
      <path
         d="m 2247.47,2410.01 c 0.01,-0.01 1.63,-4.19 4.09,-11.47 7.38,-21.83 22.14,-71.29 22.12,-116.04 0.01,-18.46 -2.51,-36.09 -8.93,-50.58 -13.87,-31.36 -20.67,-58.82 -20.68,-82.62 -0.01,-24.57 7.33,-45.26 21.54,-61.8 0.9,-1.04 2.47,-1.16 3.52,-0.27 1.05,0.9 1.17,2.48 0.27,3.53 -13.39,15.63 -20.31,34.94 -20.33,58.54 0,22.84 6.56,49.67 20.25,80.59 6.82,15.43 9.36,33.71 9.36,52.61 -0.03,61.04 -26.51,129.17 -26.54,129.32 -0.5,1.28 -1.95,1.92 -3.24,1.42 -1.29,-0.49 -1.92,-1.94 -1.43,-3.23"
         style="fill:#1d2a30;fill-opacity:1;fill-rule:nonzero;stroke:none"
         id="path268" />
      <path
         d="m 1901.76,2178.6 7.91,105.59 c 0,0 9.23,7.31 13.19,21.46 3.95,14.14 9.23,100.42 9.23,100.42 0,0 -70.66,10.9 -85.72,0 -6.25,-4.52 -1.77,-115.22 15.83,-119.24 l -11.87,-116.05 51.43,7.82"
         style="fill:#f9a95e;fill-opacity:1;fill-rule:nonzero;stroke:none"
         id="path270" />
      <path
         d="m 2524.2,1392.12 h -403.5 l 18.9,397.79 c 9.9,47.1 17,89.41 20.3,146.01 0.6,10 1,20.5 1.3,31.6 0.9,27.4 1,58.3 0.1,94.3 -0.1,5.8 -0.3,11.7 -0.5,17.7 -0.4,14.09 -1,29 -1.7,44.6 -0.7,16.99 -1.6,35 -2.7,54.09 39.7,1.2 79.3,-0.29 118.7,-4.69 41.6,-4.2 83,-11.4 123.7,-21.5 52.2,-14.4 110.3,-37.2 110.3,-37.2 0,0 8,-4.4 -2.3,-61.21 -4.8,-25.4 -13.4,-60.59 -28.2,-110.69 -14.8,-50.11 -35.6,-115.11 -64.9,-200.4 l 110.5,-350.4"
         style="fill:#4870c0;fill-opacity:1;fill-rule:nonzero;stroke:none"
         id="path272" />
      <path
         d="m 2524.2,1392.12 h -403.5 l 18.9,397.79 c 9.9,47.1 17,89.41 20.3,146.01 0.6,10 1,20.5 1.3,31.6 0.47,14.18 0.72,29.3 0.73,45.59 v 0 c -0.01,-16.29 -0.26,-31.41 -0.73,-45.59 -0.3,-11.1 -0.7,-21.6 -1.3,-31.6 58.9,88.2 13.9,147.2 13.9,147.2 l -0.67,-0.19 c 0.45,6.61 0.71,13.41 0.72,20.25 0,27.24 -4.16,55.16 -17.45,74.97 0,0.02 0,0.04 0,0.06 8.76,0.27 17.51,0.4 26.26,0.4 30.9,0 61.73,-1.66 92.44,-5.09 41.6,-4.2 83,-11.4 123.7,-21.5 52.2,-14.4 110.3,-37.2 110.3,-37.2 0,0 2.95,-1.63 2.96,-15.63 0.01,-9.05 -1.22,-23.28 -5.26,-45.58 -1.29,-6.8 -2.85,-14.31 -4.72,-22.63 -5.13,-22.7 -12.64,-51.39 -23.48,-88.06 -2.28,-7.73 -4.71,-15.81 -7.29,-24.27 -11.44,-37.54 -25.87,-82.45 -44.1,-136.47 -0.83,-2.45 -1.66,-4.91 -2.5,-7.4 -3.53,-10.41 -7.2,-21.17 -11.01,-32.26 v 0 0 l 110.5,-350.4"
         style="fill:#395eb4;fill-opacity:1;fill-rule:nonzero;stroke:none"
         id="path274" />
      <path
         d="m 2159.9,1935.92 c 0.6,10 1,20.5 1.3,31.6 0.47,14.18 0.72,29.3 0.73,45.59 0.22,0.81 8.66,32.43 11.2,69.82 l 0.67,0.19 c 0,0 45,-59 -13.9,-147.2"
         style="fill:#244ca5;fill-opacity:1;fill-rule:nonzero;stroke:none"
         id="path276" />
      <path
         d="m 2156.39,2178.17 c 0,0 -224.45,-147.3 -238.41,-134.68 -15.06,13.61 -3.03,205.86 -3.03,205.86 h -68.58 c 0,0 -55.14,-294.41 12.72,-326.06 78.91,-36.8 302.83,89.8 302.83,89.8 0,0 30.2,111.82 -5.53,165.08"
         style="fill:#4870c0;fill-opacity:1;fill-rule:nonzero;stroke:none"
         id="path278" />
      <path
         d="m 1895.38,1916.58 c -13.92,0.01 -26.28,2.05 -36.29,6.71 -25.85,12.06 -33.85,62.23 -33.85,119.73 -0.01,93.47 21.13,206.33 21.13,206.33 h 68.58 c 0,0 -4.56,-72.77 -4.55,-131.94 0,-37 1.78,-68.69 7.58,-73.92 0.57,-0.52 1.5,-0.77 2.75,-0.77 29.27,0 235.66,135.45 235.66,135.45 13.3,-19.81 17.46,-47.74 17.46,-74.99 -0.01,-6.84 -0.27,-13.64 -0.72,-20.25 -2.54,-37.39 -10.98,-69.01 -11.2,-69.82 v 0 c -0.01,-0.01 -0.01,-0.02 -0.01,-0.02 0,0 -5.59,-3.16 -15.32,-8.34 -44.03,-23.44 -172.73,-88.18 -251.22,-88.17"
         style="fill:#395eb4;fill-opacity:1;fill-rule:nonzero;stroke:none"
         id="path280" />
      <path
         d="m 2252.61,2471.97 -0.56,0.18 c -29.11,-29.42 -38.24,-76.85 -22.14,-114.97 10.78,-25.53 31.1,-45.74 45.06,-69.68 27.25,-46.77 28.34,-103.7 29.22,-157.83 0.88,-54.12 3.17,-111.28 32.22,-156.95 17.17,-27 43.04,-48.16 72.46,-60.74 27.7,-11.84 60.42,-15.9 87.62,-2.95 27.19,12.94 44.72,41 52.21,70.17 23.64,92.06 -5.51,190.13 -45.93,273.09 -8.81,18.06 -18.25,37.04 -16.99,57.11 0.88,14.16 2.91,89.51 2.91,89.51 0,0 -30.47,30.44 -76.05,31.76 -41.3,1.2 -136.46,-35.6 -160.03,41.3"
         style="fill:#1d2a30;fill-opacity:1;fill-rule:nonzero;stroke:none"
         id="path282" />
      <path
         d="m 4007.14,2608.25 c 0,0 65.94,-285.5 81.76,-338.57 15.83,-53.07 195.17,-385.45 195.17,-385.45 0,0 26.37,-12.36 42.19,-32.52 15.83,-20.16 61.43,-106.53 61.43,-116.09 0,-9.56 -103.62,-41.13 -116.81,-35.89 -13.19,5.23 -55.39,113.95 -55.39,113.95 l 5.28,38.03 c 0,0 -176.7,265.45 -195.17,301.99 -18.46,36.53 -118.68,335.76 -118.68,335.76 l 100.22,118.79"
         style="fill:#fab6b9;fill-opacity:1;fill-rule:nonzero;stroke:none"
         id="path284" />
      <path
         d="m 4088.9,2414.41 -79.5,-48.99 -74.8,-46.01 c 0,0 -30.6,81.9 -53.6,152.01 -13.8,41.9 -24.9,79.49 -25,92.9 -0.5,36 99.7,157.79 99.7,157.79 62,-34.69 133.2,-307.7 133.2,-307.7"
         style="fill:#4870c0;fill-opacity:1;fill-rule:nonzero;stroke:none"
         id="path286" />
      <path
         d="m 3973.38,2343.26 c 0.42,46.94 0.27,93.71 -0.65,138.75 13.07,-27.74 28.11,-67.51 36.67,-116.59 l -36.02,-22.16"
         style="fill:#395eb4;fill-opacity:1;fill-rule:nonzero;stroke:none"
         id="path288" />
      <path
         d="m 3694.81,2585.76 c 0,0 -331.93,-33.86 -370.74,-64.96 -20.76,-16.64 -35.38,-144.98 -32.51,-229.13 0,0 -53.21,-70 -45.3,-248.58 7.91,-178.58 40.88,-286.05 77.81,-307.47 36.92,-21.43 370.19,-6.52 399.38,11.73 29.19,18.27 -28.64,838.41 -28.64,838.41"
         style="fill:#1d2a30;fill-opacity:1;fill-rule:nonzero;stroke:none"
         id="path290" />
      <path
         d="m 3422.35,367.578 55.05,-63.637 134.8,121.008 -55.05,63.641 -134.8,-121.012"
         style="fill:#fab6b9;fill-opacity:1;fill-rule:nonzero;stroke:none"
         id="path292" />
      <path
         d="m 3487.62,426.172 -0.05,0.047 16.32,14.633 0.04,-0.051 -16.31,-14.629"
         style="fill:#adb7d0;fill-opacity:1;fill-rule:nonzero;stroke:none"
         id="path294" />
      <path
         d="m 3542.62,362.578 -55,63.594 16.31,14.629 52.34,-65.981 -13.65,-12.242"
         style="fill:#ca9091;fill-opacity:1;fill-rule:nonzero;stroke:none"
         id="path296" />
      <path
         d="m 3504.68,481.199 c 0,0 260.92,338.141 310.43,467.391 49.51,129.26 -230.31,872.97 -230.31,872.97 l 313.85,63.23 c 0,0 231.2,-569.6 202.63,-835.98 C 4072.72,782.441 3612.2,373.898 3612.2,373.898 l -107.52,107.301"
         style="fill:#1d2a30;fill-opacity:1;fill-rule:nonzero;stroke:none"
         id="path298" />
      <path
         d="m 3502.25,317.531 -71.91,67.309 c -2.44,2.262 -6.11,2.531 -8.86,0.66 l -61.01,-41.781 c -5.42,-3.789 -6.74,-11.25 -2.96,-16.66 l 1.75,-1.989 c 23.62,-21.41 41.9,-35.832 71.12,-63.179 17.99,-16.852 70.52,-69.559 95.37,-92.821 24.85,-23.261 51.06,-1.738 43.01,10.032 -36.32,52.66 -57.76,98.578 -60.1,125.347 -0.38,5.02 -2.68,9.699 -6.41,13.082"
         style="fill:#1d2a30;fill-opacity:1;fill-rule:nonzero;stroke:none"
         id="path300" />
      <path
         d="m 3504.53,303.66 c 4.72,-8.801 12.61,-15.48 22.07,-18.68 2.6,-0.058 5.07,1.168 6.6,3.282 0.98,1.199 1.02,2.148 0.65,2.5 l -1.46,2.07 c -8.51,5.359 -17.97,9.039 -27.86,10.828 z m -5.9,1.852 0.07,2.199 1.95,0.719 c 3.37,-0.629 33.5,-6.782 36.87,-16.301 0.84,-2.129 0.35,-4.539 -1.25,-6.168 -2.27,-3.219 -6.06,-5.031 -9.99,-4.789 -5.46,0.859 -10.46,3.547 -14.19,7.637 -5.09,5.05 -9.6,10.652 -13.46,16.703"
         style="fill:#4870c0;fill-opacity:1;fill-rule:nonzero;stroke:none"
         id="path302" />
      <path
         d="m 3529.03,319.73 c -9.15,-1.429 -17.64,-5.601 -24.35,-11.98 10.4,-1.109 27.17,1.699 30.01,6.242 0.28,0.449 1.11,1.656 -0.7,3.34 l -0.67,0.637 c -1.17,1.082 -2.7,1.711 -4.29,1.761 z m -31.06,-14.16 0.52,1.91 c 0.85,0.75 18.21,16.442 30.28,15.59 2.97,-0.09 5.76,-1.468 7.64,-3.761 2.2,-2.039 2.65,-5.36 1.07,-7.918 -4.65,-7.379 -28.67,-9.34 -37.87,-6.942 l -0.67,0.641 -0.97,0.48"
         style="fill:#4870c0;fill-opacity:1;fill-rule:nonzero;stroke:none"
         id="path304" />
      <path
         d="m 3590.12,332.148 -113.3,142.821 38.15,32.691 120.11,-146.168 -44.96,-29.344"
         style="fill:#4870c0;fill-opacity:1;fill-rule:nonzero;stroke:none"
         id="path306" />
      <path
         d="m 3590.12,332.148 -33.85,42.672 -52.34,65.981 -27.11,34.168 38.15,32.691 120.11,-146.168 -44.96,-29.344"
         style="fill:#b4caec;fill-opacity:1;fill-rule:nonzero;stroke:none"
         id="path308" />
      <path
         d="m 3680.13,145.461 h 81.08 l 6.7,187.828 h -81.17 l -6.61,-187.828"
         style="fill:#fab6b9;fill-opacity:1;fill-rule:nonzero;stroke:none"
         id="path310" />
      <path
         d="m 3772.45,154.84 h -98.5 c -3.32,-0.008 -6.19,-2.32 -6.91,-5.559 l -15.99,-72.199 c -1.37,-6.4609 2.76,-12.8125 9.23,-14.1836 l 2.63,-0.2578 c 31.87,0.5196 55.08,2.4805 95.1,2.4805 24.65,0 99.02,-2.582 133.05,-2.582 34.04,0 38.48,33.6211 24.55,36.7226 -62.5,13.6093 -109.54,32.4883 -129.55,50.4293 -3.71,3.411 -8.58,5.25 -13.61,5.149"
         style="fill:#1d2a30;fill-opacity:1;fill-rule:nonzero;stroke:none"
         id="path312" />
      <path
         d="m 3783.59,146.289 c 9.46,-3.187 19.78,-2.687 28.88,1.453 1.94,1.727 2.9,4.309 2.57,6.899 -0.1,1.55 -0.72,2.269 -1.23,2.269 l -2.48,0.52 c -9.87,-1.91 -19.29,-5.692 -27.74,-11.141 z m -5.57,-2.687 -1.45,1.648 0.93,1.859 c 2.89,1.86 29.09,17.95 38.06,13.313 2.07,-0.981 3.36,-3.09 3.3,-5.363 0.54,-3.911 -0.98,-7.809 -4.02,-10.321 -4.57,-3.109 -10.06,-4.558 -15.58,-4.117 -7.17,0.199 -14.29,1.211 -21.24,2.981"
         style="fill:#4870c0;fill-opacity:1;fill-rule:nonzero;stroke:none"
         id="path314" />
      <path
         d="m 3790.5,174.762 c -5.71,-7.293 -9.05,-16.141 -9.6,-25.371 8.36,6.281 18.68,19.8 17.64,25.05 -0.1,0.52 -0.31,1.969 -2.78,1.969 h -0.93 c -1.6,-0.012 -3.14,-0.601 -4.33,-1.648 z m -13,-31.571 -0.93,1.758 c 0.1,1.133 2.07,24.449 11.45,32.071 2.23,1.972 5.2,2.859 8.15,2.48 3,0.012 5.6,-2.109 6.19,-5.059 1.65,-8.55 -14.54,-26.402 -22.9,-30.929 h -0.92 l -1.04,-0.321"
         style="fill:#4870c0;fill-opacity:1;fill-rule:nonzero;stroke:none"
         id="path316" />
      <path
         d="m 3683.33,236.328 h -0.1 l 0.56,15.582 h 0.09 l -0.55,-15.582"
         style="fill:#cecdcc;fill-opacity:1;fill-rule:nonzero;stroke:none"
         id="path318" />
      <path
         d="m 3764.4,236.328 h -81.07 l 0.55,15.582 h 81.09 l -0.57,-15.582"
         style="fill:#ca9091;fill-opacity:1;fill-rule:nonzero;stroke:none"
         id="path320" />
      <path
         d="m 3487.57,1921.48 c 0,-452.4 188.76,-764.54 166.62,-1650.851 h 148.29 c 0,0 120.52,617.301 27.14,1666.041 l -342.05,-15.19"
         style="fill:#1d2a30;fill-opacity:1;fill-rule:nonzero;stroke:none"
         id="path322" />
      <path
         d="m 3654.94,304.398 c 0.71,36.922 1.05,72.864 1.06,107.813 0,0.758 0,1.437 0,2.199 -0.03,94.27 -2.53,181.649 -6.9,263.012 -25.94,483.818 -117.94,758.278 -150.22,1048.328 -4.42,39.67 -7.72,79.68 -9.58,120.5 l 349.86,-24.67 c 18.87,-246.1 25.94,-466.56 25.93,-658.62 0,-225.089 -9.71,-411.241 -21.48,-554.249 -4.06,-49.371 -8.37,-93.59 -12.61,-132.492 -0.55,-5.09 -1.11,-10.11 -1.66,-15.02 -4.2,-37.32 -8.29,-69.379 -11.96,-95.957 v 0 c -3.27,-23.711 -6.21,-43.062 -8.59,-57.961 l -153.85,-2.883"
         style="fill:#304047;fill-opacity:1;fill-rule:nonzero;stroke:none"
         id="path324" />
      <path
         d="m 3819.48,251.91 h -174.93 v 52.289 l 181.53,3.41 -6.6,-55.699"
         style="fill:#4870c0;fill-opacity:1;fill-rule:nonzero;stroke:none"
         id="path326" />
      <path
         d="m 3819.48,251.91 h -174.93 v 52.289 l 181.53,3.41 -6.6,-55.699"
         style="fill:#b4caec;fill-opacity:1;fill-rule:nonzero;stroke:none"
         id="path328" />
      <path
         d="m 3955.69,2722.13 c 0,0 -270.84,41.99 -479.07,12.22 0,0 3.75,-627.1 -26.96,-885.31 l 501.56,-35.36 c 0,0 47.23,636.34 4.47,908.45"
         style="fill:#4870c0;fill-opacity:1;fill-rule:nonzero;stroke:none"
         id="path330" />
      <path
         d="m 3634.33,2745.46 c 35.51,-39.84 133.15,-36.81 133.15,-36.81 0,0 61.82,10.1 51.18,30.21 -34.77,9.58 -50.15,27.91 -55,49.78 -2.81,12.74 -1.96,26.65 0.68,40.79 1.3,7.44 3.23,14.91 5.35,22.25 l -109.68,100.68 c 9.45,-59.81 17.24,-168.81 -25.68,-206.9"
         style="fill:#fab6b9;fill-opacity:1;fill-rule:nonzero;stroke:none"
         id="path332" />
      <path
         d="m 3763.66,2788.64 c -28.3,7.03 -84.89,32.92 -82.07,104.81 l 82.75,-64.02 c -1.5,-8.06 -2.43,-16.05 -2.42,-23.79 0,-5.84 0.53,-11.53 1.74,-17"
         style="fill:#ca9091;fill-opacity:1;fill-rule:nonzero;stroke:none"
         id="path334" />
      <path
         d="m 3875.37,3126.3 c 0,0 29.86,-109.01 -24.04,-158.59 -53.91,-49.58 -78.1,157.01 -78.1,157.01 l 102.14,1.58"
         style="fill:#1d2a30;fill-opacity:1;fill-rule:nonzero;stroke:none"
         id="path336" />
      <path
         d="m 3690.64,2859.48 c 33.39,-37.73 81.26,-43.03 120.23,-25.48 25.06,11.23 46.41,32.01 57.92,59.63 1.55,3.61 2.88,7.4 4.08,11.28 21.05,71.21 16.38,190.92 -60.53,226.98 -54.66,26.11 -120.29,2.95 -146.38,-51.82 -7.53,-15.52 -11.13,-32.66 -10.77,-49.96 0.47,-80.32 -3.03,-127.56 35.45,-170.63"
         style="fill:#fab6b9;fill-opacity:1;fill-rule:nonzero;stroke:none"
         id="path338" />
      <path
         d="m 3775.74,3001.27 c -0.79,-6.45 2.79,-11.98 7.13,-12.2 4.33,-0.22 7.98,4.95 8.37,11.45 0.38,6.49 -2.9,11.99 -7.13,12.19 -4.23,0.22 -7.97,-4.83 -8.37,-11.44"
         style="fill:#1d2a30;fill-opacity:1;fill-rule:nonzero;stroke:none"
         id="path340" />
      <path
         d="m 3849.57,2997.39 c -0.8,-6.45 2.89,-12 7.12,-12.2 4.23,-0.21 7.98,4.94 8.37,11.44 0.38,6.5 -2.89,11.99 -7.13,12.2 -4.23,0.21 -8.02,-5.24 -8.36,-11.44"
         style="fill:#1d2a30;fill-opacity:1;fill-rule:nonzero;stroke:none"
         id="path342" />
      <path
         d="m 3825.94,2995.41 c 6.72,-20.38 16.23,-39.73 28.26,-57.51 -9.42,-6.01 -21.03,-7.56 -31.7,-4.21 l 3.44,61.72"
         style="fill:#ed6a75;fill-opacity:1;fill-rule:nonzero;stroke:none"
         id="path344" />
      <path
         d="m 3754.1,3026.39 c 1.4,-0.28 2.85,0.22 3.79,1.3 6.12,7.61 15.46,11.89 25.22,11.55 2.1,-0.26 4,1.22 4.26,3.31 0.27,2.09 -1.22,3.99 -3.31,4.26 h -0.02 c -12.32,0.75 -24.24,-4.52 -31.97,-14.14 -1.41,-1.58 -1.28,-3.99 0.29,-5.39 l 0.07,-0.07 1.67,-0.82"
         style="fill:#1d2a30;fill-opacity:1;fill-rule:nonzero;stroke:none"
         id="path346" />
      <path
         d="m 3810.12,2900.43 v 0 c -19.12,-1.88 -37.95,5.69 -50.46,20.27 l 0.39,2.85 2.76,-0.27 0.1,-0.12 c 11.84,-13.25 29.23,-20.14 46.93,-18.61 1.07,0.14 2.05,-0.62 2.19,-1.7 l 0.01,-0.22 c 0.13,-1.07 -0.63,-2.05 -1.71,-2.18 l -0.21,-0.02"
         style="fill:#1d2a30;fill-opacity:1;fill-rule:nonzero;stroke:none"
         id="path348" />
      <path
         d="m 3882.63,3021.17 2.25,-0.27 c 1.96,0.78 2.9,3.01 2.11,4.97 l -0.03,0.07 c -4.56,11.52 -14.44,20.1 -26.48,23.01 -2.08,0.37 -4.06,-1.01 -4.43,-3.08 v -0.01 c -0.32,-2.07 1.04,-4.02 3.09,-4.44 9.44,-2.57 17.11,-9.45 20.68,-18.55 0.64,-0.95 1.67,-1.57 2.81,-1.7"
         style="fill:#1d2a30;fill-opacity:1;fill-rule:nonzero;stroke:none"
         id="path350" />
      <path
         d="m 3719.3,3127.06 4.15,-35.42 c -11.64,-6.13 -18.7,-19.19 -13.42,-33.16 11.28,-29.84 -5.84,-75.94 -28.78,-94.24 0,0 -0.64,12.9 -11.54,9.9 -10.9,-3.01 -8.23,-70.19 12.84,-102.34 0,0 -31.97,29.14 -49.75,99.75 -16.45,65.31 -18.27,119.67 -4.74,144.83 l 91.24,10.68"
         style="fill:#1d2a30;fill-opacity:1;fill-rule:nonzero;stroke:none"
         id="path352" />
      <path
         d="m 3616.69,2966.2 c 7.94,-18.62 22.94,-33.33 41.71,-40.9 24.93,-9.84 40.15,11.81 35.61,36.81 -4.24,22.18 -22.15,54.75 -48.35,53.67 -26.21,-1.08 -38.42,-26.61 -28.97,-49.58"
         style="fill:#fab6b9;fill-opacity:1;fill-rule:nonzero;stroke:none"
         id="path354" />
      <path
         d="m 3619.06,3067.81 c 0,0 -22.6,77.15 52.19,94.29 h -27.51 c 0,0 62.38,46.15 139.71,36.92 77.32,-9.23 88.19,-44.84 88.19,-44.84 1.57,11.87 -6.55,31.66 -6.55,31.66 0,0 71.5,-62.64 -7.81,-94.72 0,0 -176.08,11.39 -238.22,-23.31"
         style="fill:#1d2a30;fill-opacity:1;fill-rule:nonzero;stroke:none"
         id="path356" />
      <path
         d="m 3540.33,2752.82 c 0,0 60.66,-218.21 -70.38,-570.53 v -50.81 c 0,0 185.22,254.64 143.57,623.38 l -73.19,-2.04"
         style="fill:#1d2a30;fill-opacity:1;fill-rule:nonzero;stroke:none"
         id="path358" />
      <path
         d="m 3476.62,2734.35 c -47.06,-3.46 -152.55,-275.32 -152.55,-275.32 l 145.88,-84.84 60.49,127.95 c 10.6,133.78 -53.82,232.21 -53.82,232.21"
         style="fill:#4870c0;fill-opacity:1;fill-rule:nonzero;stroke:none"
         id="path360" />
      <path
         d="m 3859.86,2275.41 c -8.62,4 -18.23,7.77 -28.87,11.03 39.82,27.21 66.7,78.95 66.7,138.31 0,87.63 -58.58,158.66 -130.85,158.66 -39.97,0 -75.76,-21.73 -99.76,-55.97 -3,10.64 -6.42,20.06 -9.88,28.24 27.71,32.54 65.47,52.57 107.09,52.57 84.99,0 153.89,-83.54 153.89,-186.59 0,-59.26 -22.79,-112.07 -58.32,-146.25 m -198.23,7.23 c -31.45,34.17 -51.24,83.79 -51.24,139.02 0,3.9 0.09,7.78 0.29,11.62 l 27.02,17.27 c -1.13,-8.4 -1.72,-17.02 -1.72,-25.8 0,-55.44 23.46,-104.24 58.99,-132.61 -12.03,-2.58 -23.16,-5.85 -33.34,-9.5"
         style="fill:#658acf;fill-opacity:1;fill-rule:nonzero;stroke:none"
         id="path362" />
      <path
         d="m 3830.99,2286.44 c -18.93,5.82 -41.12,10.05 -66.85,11.26 -4.46,0.21 -8.85,0.31 -13.17,0.31 -20.37,0 -39.08,-2.25 -56,-5.87 -35.53,28.37 -58.99,77.17 -58.99,132.61 0,8.78 0.59,17.4 1.72,25.8 l 38.63,24.69 c -1.6,19.8 -5.02,37.21 -9.25,52.2 24,34.24 59.79,55.97 99.76,55.97 72.27,0 130.85,-71.03 130.85,-158.66 0,-59.36 -26.88,-111.1 -66.7,-138.31"
         style="fill:#567dc8;fill-opacity:1;fill-rule:nonzero;stroke:none"
         id="path364" />
      <path
         d="m 3591.55,2225.97 c -3.49,7.91 -1.18,17.22 5.74,22.42 23.4,17.63 81.81,53.32 166.85,49.31 83.73,-3.94 130.03,-39.91 148.2,-58.02 5.7,-5.67 7.28,-14.24 3.82,-21.49 l -11.83,-24.73 c -5.42,-11.34 -20.16,-14.22 -29.46,-5.78 -21.04,19.08 -61.06,45.2 -120.55,42.29 -51.26,-2.52 -98.94,-26.3 -123.72,-40.91 -9.65,-5.69 -22.06,-1.65 -26.58,8.61 l -12.47,28.3"
         style="fill:#4870c0;fill-opacity:1;fill-rule:nonzero;stroke:none"
         id="path366" />
      <path
         d="m 3887.44,2182.8 c -4.43,0 -8.92,1.57 -12.57,4.88 -19.95,18.09 -56.96,42.51 -111.45,42.51 -2.98,0 -6.01,-0.07 -9.1,-0.22 -51.26,-2.52 -98.94,-26.3 -123.72,-40.91 -2.99,-1.76 -6.25,-2.59 -9.45,-2.59 -7.13,0 -14.01,4.12 -17.13,11.2 l -12.47,28.3 c -1.09,2.47 -1.62,5.08 -1.61,7.66 0.01,5.67 2.59,11.18 7.35,14.76 22.17,16.7 75.78,49.62 153.68,49.62 4.32,0 8.71,-0.1 13.17,-0.31 83.73,-3.94 130.03,-39.91 148.2,-58.02 3.67,-3.65 5.64,-8.51 5.64,-13.45 0,-2.72 -0.59,-5.46 -1.82,-8.04 l -11.83,-24.73 c -3.29,-6.89 -10.03,-10.66 -16.89,-10.66"
         style="fill:#799bd7;fill-opacity:1;fill-rule:nonzero;stroke:none"
         id="path368" />
      <path
         d="m 3504.68,2517.65 129.65,77.96 c 0,0 35.59,-41.08 42,-120.37 l -112.26,-71.75 c 0,0 -146.74,-334.12 -225.86,-315.66 -79.12,18.46 -45.9,147.76 13.13,355.34 l 113.83,-43.27 39.51,62.47 v 55.28"
         style="fill:#fab6b9;fill-opacity:1;fill-rule:nonzero;stroke:none"
         id="path370" />
      <path
         d="m 3375.49,2251.76 c 0,0 -3.82,73.71 62.69,158.4 l 26.99,-10.26 -89.68,-148.14"
         style="fill:#ca9091;fill-opacity:1;fill-rule:nonzero;stroke:none"
         id="path372" />
    </g>
  </g>
</svg>
